<svg width="35" height="35" viewBox="0 0 35 35" fill="none" xmlns="http://www.w3.org/2000/svg">
<path d="M23.3333 4.375H1.45834V23.3333H23.3333V4.375Z" stroke="black" stroke-width="2" stroke-linecap="round" stroke-linejoin="round"/>
<path d="M23.3333 11.6666H29.1667L33.5417 16.0416V23.3333H23.3333V11.6666Z" stroke="black" stroke-width="2" stroke-linecap="round" stroke-linejoin="round"/>
<path d="M8.02083 30.625C10.0344 30.625 11.6667 28.9927 11.6667 26.9792C11.6667 24.9657 10.0344 23.3334 8.02083 23.3334C6.0073 23.3334 4.375 24.9657 4.375 26.9792C4.375 28.9927 6.0073 30.625 8.02083 30.625Z" stroke="black" stroke-width="2" stroke-linecap="round" stroke-linejoin="round"/>
<path d="M26.9792 30.625C28.9927 30.625 30.625 28.9927 30.625 26.9792C30.625 24.9657 28.9927 23.3334 26.9792 23.3334C24.9656 23.3334 23.3333 24.9657 23.3333 26.9792C23.3333 28.9927 24.9656 30.625 26.9792 30.625Z" stroke="black" stroke-width="2" stroke-linecap="round" stroke-linejoin="round"/>
</svg>
